<svg width="124" height="14" viewBox="0 0 124 14" fill="none" xmlns="http://www.w3.org/2000/svg">
<g clip-path="url(#clip0_0_126)">
<path opacity="0.4" fill-rule="evenodd" clip-rule="evenodd" d="M24.9192 9.42703C26.2596 10.4009 28.1357 10.1038 29.1096 8.76333C30.0835 7.42291 29.7863 5.5468 28.4459 4.57293C27.1055 3.59905 25.2294 3.8962 24.2555 5.23662C23.2816 6.57704 23.5788 8.45315 24.9192 9.42703Z" fill="#242121"/>
<path fill-rule="evenodd" clip-rule="evenodd" d="M48.2198 11.0451C50.4538 12.6682 53.5807 12.173 55.2038 9.93893C56.8269 7.70489 56.3317 4.57804 54.0976 2.95492C51.8636 1.33179 48.7367 1.82704 47.1136 4.06108C45.4905 6.29512 45.9857 9.42196 48.2198 11.0451Z" fill="#242121"/>
<path opacity="0.4" fill-rule="evenodd" clip-rule="evenodd" d="M73.8715 9.42703C75.212 10.4009 77.0881 10.1038 78.0619 8.76333C79.0358 7.42291 78.7387 5.5468 77.3982 4.57293C76.0578 3.59905 74.1817 3.8962 73.2078 5.23662C72.234 6.57704 72.5311 8.45315 73.8715 9.42703Z" fill="#242121"/>
<path opacity="0.4" fill-rule="evenodd" clip-rule="evenodd" d="M95.5541 9.42703C96.8945 10.4009 98.7706 10.1038 99.7445 8.76333C100.718 7.42291 100.421 5.5468 99.0808 4.57293C97.7404 3.59905 95.8643 3.8962 94.8904 5.23662C93.9165 6.57704 94.2137 8.45315 95.5541 9.42703Z" fill="#242121"/>
<path opacity="0.4" fill-rule="evenodd" clip-rule="evenodd" d="M117.237 9.42703C118.577 10.4009 120.453 10.1038 121.427 8.76333C122.401 7.42291 122.104 5.5468 120.763 4.57293C119.423 3.59905 117.547 3.8962 116.573 5.23662C115.599 6.57704 115.896 8.45315 117.237 9.42703Z" fill="#242121"/>
<path opacity="0.4" fill-rule="evenodd" clip-rule="evenodd" d="M3.23664 9.42703C4.57707 10.4009 6.45318 10.1038 7.42705 8.76333C8.40092 7.42291 8.10378 5.5468 6.76335 4.57293C5.42293 3.59905 3.54682 3.8962 2.57295 5.23662C1.59907 6.57704 1.89622 8.45315 3.23664 9.42703Z" fill="#242121"/>
</g>
<defs>
<clipPath id="clip0_0_126">
<rect width="14" height="124" fill="white" transform="translate(0 14) rotate(-90)"/>
</clipPath>
</defs>
</svg>
